<svg t="1682409600000" class="icon" viewBox="0 0 1024 1024" version="1.1" xmlns="http://www.w3.org/2000/svg">
  <path d="M699 353h-46.9c-10.2 0-19.9 4.9-25.9 13.3L469 584.3l-71.2-98.8c-6-8.3-15.6-13.3-25.9-13.3H325c-6.5 0-10.3 7.4-6.5 12.7l124.6 172.8c5.4 7.4 15.2 11.7 24.7 11.7s19.3-4.4 24.7-11.7l210-290.8c3.8-5.3 0-12.7-6.5-12.7z" fill="#1890ff"/>
  <path d="M512 64C264.6 64 64 264.6 64 512s200.6 448 448 448 448-200.6 448-448S759.4 64 512 64z m0 820c-205.4 0-372-166.6-372-372s166.6-372 372-372 372 166.6 372 372-166.6 372-372 372z" fill="#1890ff"/>
  <path d="M512 336c-97.2 0-176 78.8-176 176s78.8 176 176 176 176-78.8 176-176-78.8-176-176-176z m91.7 212.9c-1.3 2.5-4.6 3.5-7.1 2.2l-80.3-42.1c-2.5-1.3-3.5-4.6-2.2-7.1l42.1-80.3c1.3-2.5 4.6-3.5 7.1-2.2l80.3 42.1c2.5 1.3 3.5 4.6 2.2 7.1l-42.1 80.3z" fill="#1890ff"/>
</svg>