<svg t="1682409600000" class="icon" viewBox="0 0 1024 1024" version="1.1" xmlns="http://www.w3.org/2000/svg">
  <path d="M904 512h-56c-4.4 0-8 3.6-8 8v320H184V184h320c4.4 0 8-3.6 8-8v-56c0-4.4-3.6-8-8-8H144c-17.7 0-32 14.3-32 32v736c0 17.7 14.3 32 32 32h736c17.7 0 32-14.3 32-32V520c0-4.4-3.6-8-8-8z" fill="#1890ff"/>
  <path d="M355.9 534.9L354 653.8c-0.1 3.2 0.7 6.4 2.3 9.1 5.1 8.8 16.2 11.2 24.5 5.2l83.4-59.6 83.4 59.6c8.3 6 19.4 3.6 24.5-5.2 1.6-2.7 2.4-5.9 2.3-9.1l-1.9-118.9 69.7-68c2.4-2.3 4.1-5.3 4.8-8.6 2.2-10.1-4.2-20-14.5-21.9l-96.3-14-43.1-87.4c-2.3-4.7-7-7.6-12.2-7.6s-9.9 3-12.2 7.6l-43.1 87.4-96.3 14c-10.2 1.9-16.7 11.8-14.5 21.9 0.7 3.3 2.4 6.3 4.8 8.6l69.7 68z" fill="#1890ff"/>
  <path d="M715.8 472.5L671 467.8l-20-40.5c-2.3-4.7-7-7.6-12.2-7.6s-9.9 3-12.2 7.6l-20 40.5-44.8 4.7c-10.2 1.9-16.7 11.8-14.5 21.9 0.7 3.3 2.4 6.3 4.8 8.6l33.9 33.1-0.9 57.9c-0.1 3.2 0.7 6.4 2.3 9.1 5.1 8.8 16.2 11.2 24.5 5.2l40.6-29 40.6 29c8.3 6 19.4 3.6 24.5-5.2 1.6-2.7 2.4-5.9 2.3-9.1l-0.9-57.9 33.9-33.1c2.4-2.3 4.1-5.3 4.8-8.6 2.1-10.1-4.3-20-14.5-21.9z" fill="#1890ff"/>
</svg>