<svg t="1682409600000" class="icon" viewBox="0 0 1024 1024" version="1.1" xmlns="http://www.w3.org/2000/svg">
  <path d="M551.9 636c-33.6 27.9-75.2 43.2-121.9 43.2-106 0-192-86-192-192s86-192 192-192c39.3 0 75.9 11.8 106.3 32.1 35.8-24.6 78.9-39.1 125.7-39.1 121.3 0 219.7 98.4 219.7 219.7 0 49.4-16.3 95-43.8 131.7 27.4 36.4 43.6 81.6 43.6 130.6 0 121.3-98.4 219.7-219.7 219.7-49.3 0-94.9-16.3-131.6-43.7-36.7 27.6-82.4 43.9-131.9 43.9-121.3 0-219.7-98.4-219.7-219.7 0-49.2 16.2-94.7 43.5-131.3-27.4-36.7-43.7-82.3-43.7-131.6 0-121.3 98.4-219.7 219.7-219.7 49.3 0 94.9 16.3 131.6 43.7 36.7-27.6 82.4-43.9 131.9-43.9 121.3 0 219.7 98.4 219.7 219.7 0 49.2-16.2 94.7-43.5 131.3 27.4 36.7 43.7 82.3 43.7 131.6 0 121.3-98.4 219.7-219.7 219.7-49.3 0-94.9-16.3-131.6-43.7z" fill="#722ED1"/>
  <path d="M551.9 636c33.6-27.9 75.2-43.2 121.9-43.2 106 0 192 86 192 192s-86 192-192 192c-39.3 0-75.9-11.8-106.3-32.1-35.8 24.6-78.9 39.1-125.7 39.1-121.3 0-219.7-98.4-219.7-219.7 0-49.4 16.3-95 43.8-131.7-27.4-36.4-43.6-81.6-43.6-130.6 0-121.3 98.4-219.7 219.7-219.7 49.3 0 94.9 16.3 131.6 43.7 36.7-27.6 82.4-43.9 131.9-43.9 121.3 0 219.7 98.4 219.7 219.7 0 49.2-16.2 94.7-43.5 131.3 27.4 36.7 43.7 82.3 43.7 131.6 0 121.3-98.4 219.7-219.7 219.7-49.3 0-94.9-16.3-131.6-43.7z" fill="#722ED1" fill-opacity="0.5"/>
</svg>