<svg t="1682409600000" class="icon" viewBox="0 0 1024 1024" version="1.1" xmlns="http://www.w3.org/2000/svg">
  <path d="M512 74.667C270.933 74.667 74.667 270.933 74.667 512S270.933 949.333 512 949.333s437.333-196.267 437.333-437.333S753.067 74.667 512 74.667z m0 160c59.733 0 106.667 46.933 106.667 106.667S571.733 448 512 448s-106.667-46.933-106.667-106.667S452.267 234.667 512 234.667z m0 654.933c-98.133 0-185.6-42.667-247.467-110.933 2.133-81.067 162.133-125.867 247.467-125.867s245.333 44.8 247.467 125.867C697.6 847.467 610.133 889.6 512 889.6z" fill="#d9d9d9"/>
</svg> 