<svg t="1682409600000" class="icon" viewBox="0 0 1024 1024" version="1.1" xmlns="http://www.w3.org/2000/svg">
  <path d="M816 768h-24V428c0-141.1-104.3-257.7-240-277.1V112c0-22.1-17.9-40-40-40s-40 17.9-40 40v38.9c-135.7 19.4-240 136-240 277.1v340h-24c-17.7 0-32 14.3-32 32v32c0 4.4 3.6 8 8 8h656c4.4 0 8-3.6 8-8v-32c0-17.7-14.3-32-32-32zM512 888c-4.2 0-8.2-.8-12-2.3-16.3-6.4-24-24.4-17.6-40.7 2.4-6.1 6.4-11.4 11.7-15.2 5.3-3.8 11.6-5.8 18.1-5.8h-.4c22.1 0 40 17.9 40 40S534.1 888 512 888z" fill="currentColor"/>
  <path d="M512 888m-40 0a40 40 0 1 0 80 0 40 40 0 1 0-80 0Z" fill="currentColor"/>
</svg> 