<svg t="1682409600000" class="icon" viewBox="0 0 1024 1024" version="1.1" xmlns="http://www.w3.org/2000/svg">
  <path d="M512 938.667c235.648 0 426.667-191.019 426.667-426.667S747.648 85.333 512 85.333 85.333 276.352 85.333 512s191.019 426.667 426.667 426.667z" fill="#1296db"/>
  <path d="M738.133 669.867c-8.533 8.533-21.333 8.533-29.867 0l-25.6-25.6c-25.6 17.067-59.733 29.867-98.133 34.133v42.667c0 12.8-8.533 21.333-21.333 21.333h-85.333c-12.8 0-21.333-8.533-21.333-21.333v-42.667c-38.4-4.267-72.533-17.067-98.133-34.133l-25.6 25.6c-8.533 8.533-21.333 8.533-29.867 0l-59.733-59.733c-8.533-8.533-8.533-21.333 0-29.867l25.6-25.6c-17.067-25.6-29.867-59.733-34.133-98.133H290.133c-12.8 0-21.333-8.533-21.333-21.333v-85.333c0-12.8 8.533-21.333 21.333-21.333h42.667c4.267-38.4 17.067-72.533 34.133-98.133l-25.6-25.6c-8.533-8.533-8.533-21.333 0-29.867l59.733-59.733c8.533-8.533 21.333-8.533 29.867 0l25.6 25.6c25.6-17.067 59.733-29.867 98.133-34.133V256c0-12.8 8.533-21.333 21.333-21.333h85.333c12.8 0 21.333 8.533 21.333 21.333v42.667c38.4 4.267 72.533 17.067 98.133 34.133l25.6-25.6c8.533-8.533 21.333-8.533 29.867 0l59.733 59.733c8.533 8.533 8.533 21.333 0 29.867l-25.6 25.6c17.067 25.6 29.867 59.733 34.133 98.133h42.667c12.8 0 21.333 8.533 21.333 21.333v85.333c0 12.8-8.533 21.333-21.333 21.333h-42.667c-4.267 38.4-17.067 72.533-34.133 98.133l25.6 25.6c8.533 8.533 8.533 21.333 0 29.867l-59.733 59.733z" fill="white"/>
  <path d="M512 618.667c59.733 0 106.667-46.933 106.667-106.667S571.733 405.333 512 405.333s-106.667 46.933-106.667 106.667S452.267 618.667 512 618.667z m0-170.667c34.133 0 64 29.867 64 64s-29.867 64-64 64-64-29.867-64-64 29.867-64 64-64z" fill="#1296db"/>
  <path d="M384 341.333c0-17.067 12.8-29.867 29.867-29.867s29.867 12.8 29.867 29.867-12.8 29.867-29.867 29.867-29.867-12.8-29.867-29.867z m170.667 0c0-17.067 12.8-29.867 29.867-29.867s29.867 12.8 29.867 29.867-12.8 29.867-29.867 29.867-29.867-12.8-29.867-29.867z" fill="#1296db"/>
</svg> 