<svg t="1754224862866" class="icon" viewBox="0 0 1024 1024" version="1.1" xmlns="http://www.w3.org/2000/svg" p-id="4971"
     width="200" height="200">
    <path d="M692.902 442.147c11.77 0 23.54 1.023 34.798 2.047-31.216-145.847-187.298-254.337-365.385-254.337C163.246 189.857 0 325.47 0 497.927c0 99.278 54.245 181.157 144.824 244.614L108.49 851.542l126.912-63.456c45.546 9.211 81.88 17.911 126.913 17.911a372.87 372.87 0 0 0 33.775-1.535c-7.164-24.052-11.258-49.64-11.258-75.738 0-158.13 136.124-286.577 308.07-286.577z m-194.975-98.255c27.122 0 45.545 17.911 45.545 45.034 0 27.122-17.91 45.545-45.545 45.545-27.122 0-54.245-17.911-54.245-45.545 0-27.123 27.123-45.034 54.245-45.034z m-253.313 90.579c-27.123 0-54.757-17.911-54.757-45.545 0-27.123 27.634-45.034 54.757-45.034s45.033 17.911 45.033 45.034c0 27.122-17.91 45.545-45.033 45.545z"
          fill="#83D944" p-id="4972"></path>
    <path d="M1023.488 724.63c0-144.824-144.823-263.037-307.558-263.037-172.458 0-308.07 118.213-308.07 263.037 0 144.823 135.612 263.036 308.07 263.036 36.334 0 72.668-9.211 109.002-17.91L924.21 1024l-27.123-90.579c72.156-54.756 126.401-127.424 126.401-208.791zM616.14 679.084c-17.911 0-36.334-17.91-36.334-36.333 0-17.911 17.911-36.334 36.334-36.334 27.634 0 45.545 17.91 45.545 36.334-0.512 18.422-18.423 36.333-45.545 36.333z m199.068 0c-17.91 0-35.822-17.91-35.822-36.333 0-17.911 17.911-36.334 35.822-36.334 27.123 0 45.546 17.91 45.546 36.334-0.512 18.422-18.423 36.333-45.546 36.333z"
          fill="#D8D8D8" p-id="4973"></path>
</svg>