<svg t="1682409600000" class="icon" viewBox="0 0 1024 1024" version="1.1" xmlns="http://www.w3.org/2000/svg">
  <path d="M691.174 361.362c-17.16 0-34.319 5.72-45.76 17.16s-17.16 28.6-17.16 45.76c0 17.16 5.72 34.32 17.16 45.76s28.6 17.16 45.76 17.16c17.16 0 34.32-5.72 45.76-17.16s17.16-28.6 17.16-45.76c0-17.16-5.72-34.32-17.16-45.76s-28.6-17.16-45.76-17.16z" fill="#09BB07"/>
  <path d="M369.862 361.362c-17.16 0-34.32 5.72-45.76 17.16s-17.16 28.6-17.16 45.76c0 17.16 5.72 34.32 17.16 45.76s28.6 17.16 45.76 17.16c17.16 0 34.32-5.72 45.76-17.16s17.16-28.6 17.16-45.76c0-17.16-5.72-34.32-17.16-45.76s-28.6-17.16-45.76-17.16z" fill="#09BB07"/>
  <path d="M512 74.24C270.85 74.24 74.24 270.85 74.24 512S270.85 949.76 512 949.76s437.76-196.61 437.76-437.76S753.15 74.24 512 74.24z m183.467 591.36c-68.267 0-136.533-22.88-187.733-57.173-11.44-5.72-22.88-5.72-34.32 0L381.302 642.56c-5.72 5.72-17.16 0-11.44-11.44l34.32-91.307c5.72-11.44 0-22.88-11.44-28.6-68.267-39.893-114.133-114.133-114.133-199.68 0-125.44 108.587-227.84 239.36-227.84 125.44 0 233.6 91.307 250.88 216.747 17.16 5.72 34.32 11.44 57.173 11.44 119.787 0 216.747 91.307 216.747 210.773-5.72 119.787-102.68 142.667-216.747 142.667z" fill="#09BB07"/>
  <path d="M814.933 665.44c-5.72-11.44 0-22.88 11.44-28.6 51.2-34.32 85.333-91.307 85.333-153.6 0-102.4-85.333-187.733-187.733-187.733-17.16 0-34.32 0-51.2 5.72C689.6 188.587 608 96 512 96 381.302 96 272.64 204.8 272.64 335.36c0 85.333 45.76 159.573 114.133 199.68 11.44 5.72 17.16 17.16 11.44 28.6l-34.32 91.307c-5.72 11.44 5.72 17.16 11.44 11.44L467.2 632.32c11.44-5.72 22.88-5.72 34.32 0 51.2 34.32 119.467 57.173 187.733 57.173 17.16 0 34.32 0 51.2-5.72l68.267 34.32c5.72 5.72 17.16 0 11.44-11.44l-28.6-68.267z" fill="#09BB07"/>
</svg> 