<svg t="1682409600000" class="icon" viewBox="0 0 1024 1024" version="1.1" xmlns="http://www.w3.org/2000/svg">
  <path d="M880 184H712v-64c0-4.4-3.6-8-8-8h-56c-4.4 0-8 3.6-8 8v64H384v-64c0-4.4-3.6-8-8-8h-56c-4.4 0-8 3.6-8 8v64H144c-17.7 0-32 14.3-32 32v664c0 17.7 14.3 32 32 32h736c17.7 0 32-14.3 32-32V216c0-17.7-14.3-32-32-32zM648 248v128h-64V248h64z m0 192v224H376V440h272z m-336-192v128h-64V248h64z m-64 576V696h64v128h-64z m144 0V696h336v128H392z m456 0h-64V696h64v128z m0-192H768V440h80v192z m0-256H768V248h80v128z" fill="#999999"/>
  <path d="M420 500h184c4.4 0 8-3.6 8-8v-40c0-4.4-3.6-8-8-8H420c-4.4 0-8 3.6-8 8v40c0 4.4 3.6 8 8 8z" fill="#999999"/>
  <path d="M420 580h184c4.4 0 8-3.6 8-8v-40c0-4.4-3.6-8-8-8H420c-4.4 0-8 3.6-8 8v40c0 4.4 3.6 8 8 8z" fill="#999999"/>
</svg> 