<svg viewBox="0 0 1024 1024" xmlns="http://www.w3.org/2000/svg" width="24" height="24">
    <path d="M832 64H192c-17.7 0-32 14.3-32 32v832c0 17.7 14.3 32 32 32h640c17.7 0 32-14.3 32-32V96c0-17.7-14.3-32-32-32z"
          fill="#1890ff"/>
    <path d="M292 734h440c4.4 0 8-3.6 8-8v-56c0-4.4-3.6-8-8-8H292c-4.4 0-8 3.6-8 8v56c0 4.4 3.6 8 8 8zM292 472h440c4.4 0 8-3.6 8-8v-56c0-4.4-3.6-8-8-8H292c-4.4 0-8 3.6-8 8v56c0 4.4 3.6 8 8 8zM292 210h440c4.4 0 8-3.6 8-8v-56c0-4.4-3.6-8-8-8H292c-4.4 0-8 3.6-8 8v56c0 4.4 3.6 8 8 8z"
          fill="#fff"/>
</svg>