<svg viewBox="0 0 1024 1024" xmlns="http://www.w3.org/2000/svg" width="24" height="24">
    <path d="M824.2 699.9a301.55 301.55 0 0 0-86.4-60.4C783.1 602.8 812 546.8 812 484c0-110.8-92.4-201.7-203.2-200-109.1 1.7-197 90.6-197 200 0 62.8 29 118.8 74.2 155.5a300.95 300.95 0 0 0-86.4 60.4C345 754.6 314 826.8 312 903.8a8 8 0 0 0 8 8.2h56c4.3 0 7.9-3.4 8-7.7 1.9-58 25.4-112.3 66.7-153.5A226.62 226.62 0 0 1 612 684c60.9 0 118.2 23.7 161.3 66.8C814.5 792 838 846.3 840 904.3c.1 4.3 3.7 7.7 8 7.7h56a8 8 0 0 0 8-8.2c-2-77-33-149.2-87.8-203.9zM612 612c-34.2 0-66.4-13.3-90.5-37.5a126.86 126.86 0 0 1-37.5-91.8c.3-32.8 13.4-64.5 36.3-88 24-24.6 56.1-38.3 90.4-38.7 33.9-.3 66.8 12.9 91 36.6 24.8 24.3 38.4 56.8 38.4 91.4 0 34.2-13.3 66.3-37.5 90.5A127.3 127.3 0 0 1 612 612z"
          fill="#fa8c16"/>
</svg>